<svg width="600" height="220" viewBox="0 0 600 220" fill="none" xmlns="http://www.w3.org/2000/svg">
<mask id="mask0" mask-type="alpha" maskUnits="userSpaceOnUse" x="0" y="0" width="600" height="220">
<rect width="600" height="220" fill="#1D1333"/>
</mask>
<g mask="url(#mask0)">
<rect y="-14" width="600" height="268" fill="white"/>
<path opacity="0.3" d="M506.686 180.492L515.672 185.655C515.169 186.086 514.881 186.588 514.881 187.161C514.881 187.878 515.313 188.524 516.175 188.954C516.966 189.385 517.973 189.6 518.979 189.6C519.986 189.6 520.992 189.385 521.783 188.954C522.574 188.452 523.077 187.807 523.077 187.161C523.077 186.444 522.646 185.799 521.783 185.368C520.273 184.508 517.901 184.436 516.319 185.297L507.405 180.133L526.456 169.161C527.247 169.519 528.109 169.735 529.044 169.735C530.05 169.735 531.057 169.519 531.848 169.089C532.638 168.587 533.142 167.942 533.142 167.296C533.142 166.579 532.71 165.934 531.848 165.503C530.266 164.571 527.822 164.571 526.24 165.503C525.449 166.005 524.946 166.651 524.946 167.296C524.946 167.87 525.234 168.372 525.737 168.802L506.686 179.775L474.479 161.129C473.688 160.698 473.257 160.268 473.257 159.91C473.257 159.623 473.616 159.336 473.904 159.192L571.244 100.744L583.249 107.629V106.769L571.963 100.242L577.426 96.9435L577.067 96.2981L571.244 99.7404L491.014 53.5558C489.576 52.7669 486.844 51.6195 484.256 53.1255L475.773 58.0021C474.191 57.2133 471.891 57.2133 470.381 58.0739C469.59 58.5759 469.087 59.2213 469.087 59.8667C469.087 60.5122 469.518 61.2293 470.381 61.6596C471.172 62.0899 472.178 62.3051 473.185 62.3051C474.191 62.3051 475.198 62.0899 475.988 61.6596C476.779 61.1576 477.283 60.5122 477.283 59.8667C477.283 59.293 476.995 58.791 476.492 58.3607L484.615 53.6992C486.916 52.4083 489.36 53.4124 490.654 54.1295L570.597 100.314L473.688 158.547C473.041 158.906 472.682 159.408 472.682 159.91C472.682 160.555 473.185 161.2 474.263 161.774L506.039 180.062L484.687 192.325L443.35 168.515C441.912 167.727 439.18 166.579 436.592 168.085L428.109 172.962C426.528 172.173 424.227 172.173 422.717 173.033C421.927 173.535 421.423 174.181 421.423 174.826C421.423 175.543 421.855 176.189 422.717 176.619C423.508 177.049 424.515 177.265 425.521 177.265C426.528 177.265 427.534 177.049 428.325 176.619C429.116 176.117 429.619 175.472 429.619 174.826C429.619 174.253 429.331 173.751 428.828 173.32L436.952 168.659C439.252 167.368 441.697 168.372 442.991 169.089L483.968 192.683L404.601 237.792H406.039L484.687 193.114L485.406 192.683L506.686 180.492ZM428.756 174.898C428.756 175.328 428.469 175.759 427.822 176.117C426.456 176.906 424.299 176.906 422.933 176.117C422.358 175.759 421.999 175.328 421.999 174.898C421.999 174.468 422.286 174.037 422.933 173.679C423.58 173.32 424.515 173.105 425.377 173.105C426.24 173.105 427.175 173.32 427.822 173.679C428.469 174.037 428.756 174.468 428.756 174.898ZM314.522 42.3682C315.313 42.7985 316.319 43.0136 317.326 43.0136C318.188 43.0136 319.123 42.7985 319.842 42.4399L379.583 76.8633C380.518 77.3653 381.955 78.0107 383.609 78.0107C384.472 78.0107 385.478 77.7956 386.341 77.2935L391.517 74.2815C391.517 74.3532 391.517 74.4967 391.517 74.5684C391.517 75.2138 391.948 75.8592 392.883 76.3613L401.654 81.453L402.013 80.8076L393.242 75.7158C392.595 75.3572 392.236 74.9269 392.236 74.5684C392.236 74.2098 392.452 73.8512 392.883 73.4926L395.183 72.2018L395.111 72.0583L412.078 62.3051L430.338 72.8472L430.697 72.2018L412.725 62.0182L434.076 49.7549L443.063 54.9184C442.559 55.3487 442.272 55.8507 442.272 56.4244C442.272 57.1416 442.703 57.787 443.566 58.2173C444.357 58.6476 445.363 58.8627 446.37 58.8627C447.376 58.8627 448.382 58.6476 449.173 58.2173C449.964 57.7153 450.467 57.0698 450.467 56.4244C450.467 55.7072 450.036 55.0618 449.173 54.6315C447.664 53.7709 445.291 53.7709 443.71 54.5598L434.795 49.3963L453.846 38.3522C454.637 38.7107 455.5 38.9259 456.434 38.9259C457.441 38.9259 458.447 38.7107 459.238 38.2804C460.029 37.7784 460.532 37.133 460.532 36.4876C460.532 35.8421 460.101 35.125 459.238 34.6947C457.656 33.7624 455.212 33.7624 453.63 34.6947C452.84 35.1967 452.336 35.8421 452.336 36.4876C452.336 37.0613 452.624 37.5633 453.127 37.9936L434.076 48.966L325.377 -13.7131C325.234 -13.7849 325.09 -13.8566 324.946 -14H323.868C324.155 -13.7131 324.515 -13.4263 325.018 -13.1394L371.531 13.6821H371.244L337.239 33.5472C335.658 32.6866 333.285 32.7584 331.776 33.6189C330.985 34.121 330.482 34.7664 330.482 35.4118C330.482 36.0573 330.913 36.7744 331.776 37.2047C332.567 37.635 333.573 37.8501 334.579 37.8501C335.586 37.8501 336.592 37.635 337.383 37.2047C338.174 36.7027 338.677 36.0573 338.677 35.4118C338.677 34.9098 338.39 34.4078 337.958 33.9775L372.106 13.969L433.357 49.2529L412.006 61.5162L370.669 37.7067C369.231 36.9178 366.499 35.7704 363.911 37.2764L355.428 42.1531C353.846 41.3642 351.546 41.3642 350.036 42.2248C349.245 42.7268 348.742 43.3722 348.742 44.0177C348.742 44.6631 349.173 45.3803 350.036 45.8105C350.827 46.2408 351.833 46.456 352.84 46.456C353.846 46.456 354.853 46.2408 355.643 45.8105C356.434 45.3085 356.937 44.6631 356.937 44.0177C356.937 43.4439 356.65 42.9419 356.147 42.5116L364.27 37.8501C366.571 36.5593 369.015 37.5633 370.309 38.2804L411.287 61.8748L393.602 72.0583C393.099 72.3452 392.739 72.6321 392.38 72.9189L385.909 76.6481C383.609 77.939 381.165 76.935 379.871 76.2178L320.489 42.0096C321.064 41.5793 321.352 41.0056 321.352 40.4319C321.352 39.7147 320.92 39.0693 320.058 38.639C318.476 37.7067 316.032 37.7067 314.45 38.639C313.659 39.141 313.156 39.7865 313.156 40.4319C313.156 41.0773 313.731 41.9379 314.522 42.3682ZM453.055 36.4158C453.055 35.9856 453.343 35.5553 453.99 35.1967C455.356 34.4078 457.513 34.4078 458.879 35.1967C459.454 35.5553 459.813 35.9856 459.813 36.4158C459.813 36.8461 459.526 37.2764 458.879 37.635C457.513 38.4239 455.356 38.4239 453.99 37.635C453.415 37.2764 453.055 36.8461 453.055 36.4158ZM563.551 184.364C562.114 183.576 559.382 182.428 556.794 183.934L548.311 188.811C546.729 188.022 544.429 188.022 542.919 188.883C542.128 189.385 541.625 190.03 541.625 190.675C541.625 191.393 542.056 192.038 542.919 192.468C543.71 192.899 544.716 193.114 545.723 193.114C546.729 193.114 547.735 192.899 548.526 192.468C549.317 191.966 549.82 191.321 549.82 190.675C549.82 190.102 549.533 189.6 549.03 189.169L557.153 184.508C559.454 183.217 561.898 184.221 563.192 184.938L599.281 206.094L600 205.664L563.551 184.364ZM440.411 137.26C440.411 137.69 440.051 138.049 439.404 138.408L430.849 143.356C429.267 142.495 426.895 142.567 425.385 143.428C424.595 143.93 424.091 144.575 424.091 145.22C424.091 145.938 424.523 146.583 425.385 147.013C426.176 147.444 427.183 147.659 428.189 147.659C429.196 147.659 430.202 147.444 430.993 147.013C431.784 146.511 432.287 145.866 432.287 145.22C432.287 144.718 431.999 144.216 431.568 143.786L439.763 139.053C440.698 138.551 441.129 137.906 441.129 137.26C441.129 136.4 440.411 135.539 438.973 134.75L397.779 111.012L283.833 44.3171V45.1777L397.779 111.873L438.613 135.396C439.764 136.041 440.411 136.686 440.411 137.26ZM431.568 145.22C431.568 145.651 431.28 146.081 430.633 146.44C429.267 147.229 427.111 147.229 425.745 146.44C425.17 146.081 424.81 145.651 424.81 145.22C424.81 144.79 425.098 144.36 425.745 144.001C426.392 143.643 427.326 143.428 428.189 143.428C429.052 143.428 429.986 143.643 430.633 144.001C431.28 144.36 431.568 144.79 431.568 145.22ZM416.319 174.468C415.816 174.755 415.816 175.185 416.319 175.472C416.822 175.759 417.541 175.759 418.045 175.472C418.548 175.185 418.548 174.755 418.045 174.468C417.613 174.181 416.822 174.181 416.319 174.468ZM455.428 36.9896C456.003 37.2764 456.866 37.2764 457.441 36.9896C458.016 36.7027 458.016 36.129 457.441 35.8421C456.866 35.5553 456.003 35.5553 455.428 35.8421C454.853 36.2007 454.853 36.7027 455.428 36.9896ZM436.089 197.632L393.17 172.89C393.746 172.46 394.033 171.886 394.033 171.312C394.033 170.595 393.602 169.95 392.739 169.519C391.157 168.587 388.713 168.587 387.132 169.519C386.341 170.021 385.838 170.667 385.838 171.312C385.838 172.029 386.269 172.675 387.132 173.105C387.922 173.535 388.929 173.751 389.935 173.751C390.798 173.751 391.733 173.535 392.452 173.177L434.651 197.488L436.089 197.632ZM392.38 172.531C391.014 173.32 388.857 173.32 387.491 172.531C386.916 172.173 386.556 171.743 386.556 171.312C386.556 170.882 386.844 170.452 387.491 170.093C388.138 169.735 389.073 169.519 389.935 169.519C390.798 169.519 391.733 169.735 392.38 170.093C392.955 170.452 393.314 170.882 393.314 171.312C393.242 171.814 392.955 172.245 392.38 172.531ZM181.668 73.4926C182.674 74.0664 184.328 74.0664 185.334 73.4926C186.341 72.9189 186.341 71.9866 185.334 71.4129C184.328 70.8392 182.674 70.8392 181.668 71.4129C180.661 71.9866 180.661 72.9189 181.668 73.4926ZM192.595 53.1255C193.17 53.4124 194.033 53.4124 194.608 53.1255C195.183 52.8386 195.183 52.2649 194.608 51.9781C194.033 51.6912 193.17 51.6912 192.595 51.9781C192.02 52.2649 192.02 52.7669 192.595 53.1255ZM243.853 196.556L252.84 201.72C252.336 202.15 252.049 202.652 252.049 203.226C252.049 203.943 252.48 204.588 253.343 205.018C254.134 205.449 255.14 205.664 256.147 205.664C257.153 205.664 258.16 205.449 258.95 205.018C259.741 204.516 260.244 203.871 260.244 203.226C260.244 202.508 259.813 201.863 258.95 201.433C257.441 200.572 255.068 200.5 253.487 201.361L244.572 196.197L263.623 185.225C264.414 185.584 265.277 185.799 266.211 185.799C267.218 185.799 268.224 185.584 269.015 185.153C269.806 184.651 270.309 184.006 270.309 183.36C270.309 182.643 269.878 181.998 269.015 181.568C267.434 180.635 264.989 180.635 263.408 181.568C262.617 182.07 262.114 182.715 262.114 183.36C262.114 183.934 262.401 184.436 262.904 184.866L243.853 195.839L211.718 177.336C210.927 176.906 210.496 176.476 210.496 176.117C210.496 175.83 210.856 175.543 211.143 175.4L308.411 116.809L320.417 123.693V122.833L309.13 116.307L308.411 115.876L228.181 69.5483C226.743 68.7594 224.012 67.612 221.423 69.118L212.94 73.9946C211.359 73.2058 209.058 73.2058 207.549 74.0664C206.758 74.5684 206.255 75.2138 206.255 75.8592C206.255 76.5047 206.686 77.2218 207.549 77.6521C208.339 78.0824 209.346 78.2976 210.352 78.2976C211.359 78.2976 212.365 78.0824 213.156 77.6521C213.947 77.1501 214.45 76.5047 214.45 75.8592C214.45 75.2855 214.162 74.7835 213.659 74.3532L221.783 69.6917C224.083 68.4008 226.528 69.4049 227.822 70.122L307.692 116.45L210.784 174.611C210.137 174.97 209.777 175.472 209.777 175.974C209.777 176.619 210.28 177.265 211.359 177.838L243.134 196.126L221.783 208.389L180.446 184.651C179.008 183.862 176.276 182.715 173.688 184.221L165.205 189.098C163.623 188.309 161.323 188.309 159.813 189.169C159.022 189.671 158.519 190.317 158.519 190.962C158.519 191.679 158.95 192.325 159.813 192.755C160.604 193.185 161.61 193.401 162.617 193.401C163.623 193.401 164.63 193.185 165.421 192.755C166.211 192.253 166.715 191.608 166.715 190.962C166.715 190.389 166.427 189.887 165.924 189.456L174.047 184.795C176.348 183.504 178.792 184.508 180.086 185.225L221.064 208.819L141.625 254H143.063L221.711 209.321L292.523 251.418H293.961L222.43 208.891L243.853 196.556ZM213.659 76.0027C213.659 76.433 213.372 76.8633 212.725 77.2218C211.359 78.0107 209.202 78.0107 207.836 77.2218C207.261 76.8633 206.902 76.433 206.902 76.0027C206.902 75.5724 207.189 75.1421 207.836 74.7835C208.483 74.4249 209.418 74.2098 210.28 74.2098C211.143 74.2098 212.078 74.4249 212.725 74.7835C213.372 75.1421 213.659 75.5724 213.659 76.0027ZM293.961 199.998L285.478 204.875C283.896 204.086 281.596 204.086 280.086 204.947C279.295 205.449 278.792 206.094 278.792 206.74C278.792 207.457 279.224 208.102 280.086 208.533C280.877 208.963 281.884 209.178 282.89 209.178C283.896 209.178 284.903 208.963 285.694 208.533C286.485 208.03 286.988 207.385 286.988 206.74C286.988 206.166 286.7 205.664 286.197 205.234L294.321 200.572C296.621 199.281 299.065 200.285 300.359 201.002L340.043 224.238H341.481L300.719 200.429C299.353 199.64 296.549 198.492 293.961 199.998ZM194.464 224.023L152.049 199.568C152.624 199.138 152.912 198.564 152.912 197.99C152.912 197.273 152.48 196.628 151.618 196.197C150.036 195.265 147.592 195.265 146.01 196.197C145.219 196.699 144.716 197.345 144.716 197.99C144.716 198.708 145.147 199.353 146.01 199.783C146.801 200.214 147.807 200.429 148.814 200.429C149.676 200.429 150.611 200.214 151.33 199.855L193.674 224.31L194.464 224.023ZM181.093 71.2695C182.459 70.4806 184.615 70.4806 185.981 71.2695C186.556 71.628 186.916 72.0583 186.916 72.4886C186.916 72.9189 186.628 73.3492 185.981 73.7078C184.615 74.4967 182.459 74.4967 181.093 73.7078C180.518 73.3492 180.158 72.9189 180.158 72.4886C180.158 71.9866 180.518 71.5563 181.093 71.2695ZM190.223 52.4801C190.223 52.0498 190.51 51.6195 191.157 51.2609C192.523 50.472 194.68 50.472 196.046 51.2609C196.621 51.6195 196.981 52.0498 196.981 52.4801C196.981 52.9103 196.693 53.3407 196.046 53.6992C194.68 54.4881 192.523 54.4881 191.157 53.6992C190.582 53.4124 190.223 52.9821 190.223 52.4801ZM57.7283 59.0062L116.751 92.9992C117.685 93.5012 119.123 94.1466 120.776 94.1466C121.639 94.1466 122.646 93.9315 123.508 93.4295L128.684 90.4174C128.684 90.4892 128.684 90.6326 128.684 90.7043C128.684 91.3497 129.116 91.9952 130.05 92.4972L138.821 97.589L139.18 96.9435L130.41 91.8518C129.763 91.4932 129.403 91.0629 129.403 90.7043C129.403 90.3457 129.619 89.9872 130.05 89.6286L132.351 88.3377L132.279 88.1943L149.245 78.441L167.505 88.9831L167.865 88.3377L149.964 78.0107L171.316 65.7474L180.302 70.9109C179.799 71.3412 179.511 71.8432 179.511 72.4169C179.511 73.1341 179.943 73.7795 180.805 74.2098C181.596 74.6401 182.602 74.8552 183.609 74.8552C184.615 74.8552 185.622 74.6401 186.413 74.2098C187.203 73.7078 187.707 73.0623 187.707 72.4169C187.707 71.6998 187.275 71.0543 186.413 70.624C184.903 69.7635 182.531 69.7634 180.949 70.5523L172.035 65.3888L191.086 54.4164C191.876 54.7749 192.739 54.9901 193.674 54.9901C194.68 54.9901 195.687 54.7749 196.477 54.3447C197.268 53.8427 197.771 53.1972 197.771 52.5518C197.771 51.9063 197.34 51.1892 196.477 50.7589C194.896 49.8266 192.451 49.8266 190.87 50.7589C190.079 51.2609 189.576 51.9063 189.576 52.5518C189.576 53.1255 189.863 53.6275 190.367 54.0578L171.316 65.0302L62.5449 2.35108C62.4012 2.27937 62.2574 2.20765 62.1136 2.06422H61.0352C61.3228 2.35108 61.6822 2.63795 62.1855 2.92481L108.699 29.7463H108.411L74.4069 49.6115C72.8253 48.7509 70.4529 48.8226 68.9432 49.6832C68.1524 50.1852 67.6492 50.8306 67.6492 51.4761C67.6492 52.1215 68.0805 52.8386 68.9432 53.2689C69.734 53.6992 70.7405 53.9144 71.7469 53.9144C72.7534 53.9144 73.7599 53.6992 74.5507 53.2689C75.3415 52.7669 75.8447 52.1215 75.8447 51.4761C75.8447 50.974 75.5572 50.472 75.1258 50.0417L109.274 30.1049L170.525 65.3888L149.173 77.6521L107.836 53.8427C106.398 53.0538 103.666 51.9063 101.078 53.4124L92.5953 58.289C91.0137 57.5001 88.7132 57.5001 87.2035 58.3607C86.4127 58.8627 85.9094 59.5082 85.9094 60.1536C85.9094 60.799 86.3408 61.5162 87.2035 61.9465C87.9943 62.3768 89.0007 62.5919 90.0072 62.5919C91.0137 62.5919 92.0201 62.3768 92.8109 61.9465C93.6017 61.4445 94.105 60.799 94.105 60.1536C94.105 59.5799 93.8174 59.0779 93.3142 58.6476L101.438 53.9861C103.738 52.6952 106.183 53.6992 107.477 54.4164L148.454 78.0107L130.769 88.1943C130.266 88.4811 129.907 88.768 129.547 89.0548L123.077 92.784C120.776 94.0749 118.332 93.0709 117.038 92.3538L57.6564 58.1456L57.7283 59.0062ZM181.093 71.2695C182.459 70.4806 184.615 70.4806 185.981 71.2695C186.556 71.628 186.916 72.0583 186.916 72.4886C186.916 72.9189 186.628 73.3492 185.981 73.7078C184.615 74.4967 182.459 74.4967 181.093 73.7078C180.518 73.3492 180.158 72.9189 180.158 72.4886C180.158 71.9866 180.518 71.5563 181.093 71.2695ZM190.223 52.4801C190.223 52.0498 190.51 51.6195 191.157 51.2609C192.523 50.472 194.68 50.472 196.046 51.2609C196.621 51.6195 196.981 52.0498 196.981 52.4801C196.981 52.9103 196.693 53.3407 196.046 53.6992C194.68 54.4881 192.523 54.4881 191.157 53.6992C190.582 53.4124 190.223 52.9821 190.223 52.4801ZM156.578 174.324C156.578 174.755 156.219 175.113 155.572 175.472L147.017 180.42C145.435 179.56 143.063 179.631 141.553 180.492C140.762 180.994 140.259 181.639 140.259 182.285C140.259 183.002 140.69 183.647 141.553 184.078C142.344 184.508 143.35 184.723 144.357 184.723C145.363 184.723 146.37 184.508 147.16 184.078C147.951 183.576 148.454 182.93 148.454 182.285C148.454 181.783 148.167 181.281 147.735 180.85L155.931 176.117C156.866 175.615 157.297 174.97 157.297 174.324C157.297 173.464 156.578 172.603 155.14 171.814L113.947 148.077L0 81.453V82.3136L113.947 149.009L154.781 172.531C155.931 173.105 156.578 173.822 156.578 174.324Z" fill="url(#paint0_linear)"/>
<g filter="url(#filter0_d)">
<path d="M543.707 28.773L542.847 25.0335C542.817 24.8962 542.759 24.7662 542.677 24.6511C542.596 24.5361 542.492 24.4382 542.372 24.363L536.089 20.401C535.971 20.3259 535.839 20.2749 535.701 20.2511C535.563 20.2273 535.421 20.2312 535.284 20.2625C535.147 20.2938 535.018 20.3518 534.904 20.4333C534.79 20.5147 534.694 20.6179 534.621 20.7367L532.735 23.7651L535.538 23.1241C535.724 23.0816 535.919 23.114 536.08 23.2143C536.242 23.3146 536.356 23.4745 536.399 23.6589C536.441 23.8432 536.408 24.0369 536.306 24.1973C536.205 24.3577 536.043 24.4717 535.858 24.5142L531.674 25.471L530.613 27.1768L533.367 26.547C533.553 26.5045 533.748 26.5369 533.909 26.6372C534.071 26.7375 534.185 26.8974 534.228 27.0818C534.27 27.2661 534.237 27.4598 534.135 27.6202C534.034 27.7806 533.872 27.8946 533.687 27.9371L529.552 28.8826L528.491 30.5885L531.2 29.969C531.386 29.9265 531.581 29.959 531.742 30.0593C531.903 30.1596 532.018 30.3195 532.06 30.5038C532.103 30.6882 532.069 30.8819 531.968 31.0423C531.866 31.2027 531.705 31.3167 531.519 31.3592L527.434 32.2935L526.14 34.3342C526.026 34.5129 525.968 34.721 525.973 34.9323C525.978 35.1435 526.045 35.3484 526.167 35.5212C526.29 35.694 526.461 35.8269 526.659 35.9031C526.857 35.9793 527.074 35.9955 527.282 35.9496L540.354 32.9599C541.308 32.7415 542.159 32.2082 542.768 31.4474C543.377 30.6866 543.708 29.7435 543.707 28.773Z" fill="#20D497"/>
<path d="M526.222 22.16C527.349 21.9025 528.053 20.7881 527.797 19.671C527.54 18.554 526.419 17.8572 525.293 18.1148C524.166 18.3723 523.462 19.4867 523.718 20.6038C523.975 21.7208 525.096 22.4176 526.222 22.16Z" fill="#20D497"/>
<path d="M535.402 11.4131C535.862 11.3078 536.338 11.2935 536.804 11.371C537.269 11.4484 537.714 11.616 538.113 11.8643C538.513 12.1126 538.859 12.4367 539.132 12.8181C539.405 13.1995 539.6 13.6307 539.704 14.087L542.899 27.9882C543.111 28.9099 542.945 29.8783 542.438 30.6803C541.931 31.4824 541.124 32.0523 540.194 32.2648L526.18 35.4701C525.72 35.5753 525.244 35.5896 524.778 35.5122C524.313 35.4348 523.868 35.2671 523.469 35.0188C522.662 34.5173 522.089 33.7178 521.878 32.7961L518.683 18.8949C518.471 17.9732 518.637 17.0048 519.144 16.2028C519.651 15.4008 520.458 14.8308 521.388 14.6183L535.402 11.4131ZM535.242 10.718L521.228 13.9233C520.113 14.1783 519.144 14.8622 518.536 15.8247C517.927 16.7871 517.728 17.9491 517.982 19.0552L521.177 32.9564C521.431 34.0624 522.118 35.0218 523.086 35.6236C524.054 36.2254 525.225 36.4202 526.34 36.1651L540.354 32.9599C541.469 32.7049 542.438 32.0209 543.046 31.0585C543.655 30.0961 543.854 28.934 543.6 27.828L540.405 13.9268C540.151 12.8207 539.464 11.8613 538.496 11.2595C537.528 10.6578 536.357 10.463 535.242 10.718V10.718Z" fill="#37BC9B"/>
</g>
<g filter="url(#filter1_d)">
<path d="M483.134 107.448L468.939 105.179C466.586 104.803 464.374 106.4 463.997 108.747L461.722 122.908C461.345 125.255 462.946 127.463 465.299 127.839L479.494 130.108C481.847 130.484 484.06 128.886 484.437 126.539L486.712 112.379C487.089 110.032 485.487 107.824 483.134 107.448Z" fill="#20D497"/>
</g>
<path d="M481.063 124.392L481.484 121.773C481.517 121.579 481.472 121.38 481.358 121.219L478.374 117.047C478.319 116.969 478.247 116.902 478.165 116.851C478.083 116.8 477.992 116.766 477.897 116.751C477.801 116.735 477.704 116.739 477.61 116.762C477.516 116.785 477.427 116.826 477.35 116.883L475.364 118.338L477.316 118.651C477.445 118.671 477.561 118.742 477.638 118.848C477.715 118.954 477.747 119.086 477.726 119.215C477.705 119.344 477.634 119.46 477.528 119.537C477.421 119.613 477.289 119.645 477.16 119.624L474.276 119.163L473.143 119.981L475.061 120.287C475.191 120.308 475.306 120.379 475.383 120.485C475.46 120.591 475.492 120.723 475.471 120.852C475.45 120.981 475.379 121.097 475.273 121.173C475.166 121.25 475.034 121.281 474.905 121.261L472.011 120.798L470.879 121.616L472.767 121.918C472.897 121.938 473.012 122.009 473.089 122.115C473.166 122.221 473.198 122.353 473.177 122.482C473.156 122.612 473.085 122.727 472.979 122.804C472.873 122.88 472.74 122.912 472.611 122.891L469.785 122.44L468.429 123.436C468.312 123.52 468.223 123.637 468.171 123.771C468.12 123.905 468.108 124.051 468.139 124.192C468.169 124.332 468.24 124.461 468.343 124.562C468.446 124.663 468.576 124.732 468.717 124.76L477.842 126.219C478.507 126.325 479.188 126.201 479.774 125.869C480.359 125.537 480.814 125.016 481.063 124.392Z" fill="white"/>
<path d="M471.638 115.641C472.423 115.766 473.161 115.234 473.286 114.451C473.412 113.669 472.878 112.933 472.093 112.808C471.309 112.682 470.571 113.215 470.446 113.997C470.32 114.78 470.854 115.516 471.638 115.641Z" fill="white"/>
<path d="M480.232 111.343C480.821 111.437 481.349 111.761 481.698 112.243C482.048 112.725 482.191 113.325 482.097 113.913L480.533 123.648C480.439 124.236 480.114 124.762 479.631 125.111C479.148 125.459 478.546 125.602 477.957 125.508L468.197 123.948C467.609 123.854 467.081 123.53 466.732 123.049C466.382 122.567 466.239 121.966 466.333 121.378L467.897 111.643C467.991 111.055 468.316 110.529 468.799 110.181C469.282 109.832 469.884 109.689 470.473 109.783L480.232 111.343ZM480.346 110.637L470.586 109.077C469.81 108.953 469.016 109.142 468.379 109.601C467.742 110.061 467.314 110.755 467.189 111.53L465.625 121.265C465.501 122.04 465.69 122.832 466.151 123.468C466.612 124.103 467.307 124.53 468.084 124.654L477.843 126.214C478.62 126.338 479.414 126.15 480.051 125.69C480.688 125.23 481.116 124.536 481.241 123.762L482.804 114.026C482.929 113.251 482.74 112.459 482.279 111.824C481.818 111.188 481.122 110.761 480.346 110.637Z" fill="white"/>
<g filter="url(#filter2_d)">
<rect width="20.8632" height="1.18474" transform="matrix(0.992297 -0.12182 0.0797717 0.994243 103.589 63.4296)" fill="#20D497"/>
<path d="M112.148 60.5173L110.939 57.7001L106.453 58.2603L105.887 61.2993L103.057 61.6528L106.036 48.7261L109.227 48.3276L114.955 60.1668L112.148 60.5173ZM110.072 55.5699C108.963 53.0076 108.317 51.5555 108.184 51.2315C108.051 50.9074 107.924 50.6314 107.879 50.4424C107.766 51.1864 107.434 53.0284 106.884 55.9924L110.075 55.5939L110.072 55.5699Z" fill="#20D497"/>
<path d="M122.2 59.262L121.556 58.0528L121.484 58.0618C121.113 58.6678 120.697 59.0847 120.265 59.3577C119.833 59.6306 119.243 59.8015 118.5 59.8944C117.588 60.0082 116.864 59.8311 116.28 59.393C115.695 58.9309 115.351 58.2438 115.246 57.2838C115.135 56.2757 115.416 55.5108 116.058 54.9439C116.701 54.377 117.728 53.9811 119.138 53.7563L120.764 53.5046L120.719 53.0966C120.613 52.1366 120.081 51.7165 119.097 51.8393C118.353 51.9322 117.49 52.259 116.508 52.8439L115.5 51.1937C116.516 50.4828 117.684 50.045 119.003 49.8802C120.275 49.7214 121.263 49.8656 121.996 50.3337C122.728 50.8019 123.156 51.6 123.28 52.728L123.972 59.0163L122.197 59.238L122.2 59.262ZM120.951 54.9897L119.971 55.1365C119.23 55.2534 118.694 55.4663 118.336 55.7543C118.003 56.0392 117.853 56.4472 117.909 56.9512C117.988 57.6712 118.435 57.9803 119.275 57.8755C119.875 57.8006 120.336 57.5726 120.659 57.1917C120.982 56.8107 121.099 56.3337 121.036 55.7577L120.951 54.9897Z" fill="#20D497"/>
</g>
<path fill-rule="evenodd" clip-rule="evenodd" d="M533.019 187.537C532.959 187.889 533.281 188.248 533.709 188.307C534.138 188.366 534.566 188.111 534.627 187.759L536.797 175.189C536.835 175.227 536.879 175.261 536.927 175.289C540.03 177.234 543.535 177.335 547.04 177.436C550.545 177.537 554.05 177.638 557.154 179.582C557.399 179.725 557.592 179.683 557.644 179.435C557.697 179.188 557.574 178.9 557.328 178.757C556.32 178.094 555.26 177.677 554.138 177.333C553.875 177.273 553.743 177.027 553.787 176.82C553.839 176.573 554.05 176.448 554.313 176.508C555.399 176.801 556.451 177.258 557.468 177.881C557.714 178.024 557.906 177.981 557.959 177.734C558.011 177.486 557.888 177.199 557.643 177.056C556.626 176.433 555.574 175.976 554.487 175.683C554.224 175.623 554.093 175.376 554.136 175.17C554.189 174.923 554.399 174.798 554.662 174.858C555.749 175.151 556.8 175.608 557.817 176.231C558.063 176.374 558.256 176.331 558.308 176.084C558.36 175.836 558.237 175.549 557.992 175.406C556.975 174.783 555.923 174.326 554.836 174.033C554.574 173.973 554.442 173.726 554.486 173.52C554.538 173.273 554.748 173.148 555.011 173.208C556.098 173.501 557.15 173.958 558.167 174.581C558.412 174.723 558.605 174.681 558.657 174.434C558.71 174.186 558.587 173.898 558.341 173.756C557.324 173.133 556.273 172.675 555.186 172.383C554.923 172.323 554.791 172.076 554.835 171.87C554.887 171.622 555.097 171.498 555.36 171.558C556.447 171.85 557.499 172.308 558.516 172.931C558.761 173.073 558.954 173.031 559.007 172.784C559.059 172.536 558.936 172.248 558.691 172.105C557.674 171.483 556.622 171.025 555.535 170.733C555.272 170.673 555.141 170.426 555.184 170.22C555.237 169.972 555.447 169.847 555.71 169.908C556.796 170.2 557.848 170.658 558.865 171.28C559.111 171.423 559.303 171.381 559.356 171.133C559.408 170.886 559.285 170.598 559.04 170.455C558.023 169.833 556.971 169.375 555.884 169.083C555.621 169.022 555.49 168.776 555.533 168.57C555.586 168.322 555.796 168.197 556.059 168.258C557.146 168.55 558.198 169.008 559.215 169.63C559.46 169.773 559.653 169.731 559.705 169.483C559.757 169.236 559.635 168.948 559.389 168.805C558.372 168.183 557.32 167.725 556.234 167.433C555.971 167.372 555.839 167.126 555.883 166.919C555.935 166.672 556.145 166.547 556.408 166.607C557.495 166.9 558.547 167.358 559.564 167.98C559.809 168.123 560.002 168.081 560.054 167.833C560.107 167.586 559.984 167.298 559.738 167.155C558.722 166.532 557.67 166.075 556.583 165.782C556.32 165.722 556.188 165.476 556.232 165.269C556.284 165.022 556.495 164.897 556.758 164.957C557.844 165.25 558.896 165.707 559.913 166.33C560.159 166.473 560.351 166.43 560.404 166.183C560.456 165.935 560.333 165.648 560.088 165.505C557.008 163.566 553.514 163.477 550.014 163.388C546.511 163.298 543.001 163.208 539.896 161.263C539.65 161.12 539.458 161.162 539.405 161.41L538.163 167.28L539.225 161.125C539.294 160.73 538.964 160.414 538.536 160.355C538.107 160.296 537.679 160.551 537.618 160.903L533.019 187.537Z" fill="#20D497"/>
<g filter="url(#filter3_d)">
<path d="M147.38 182.287L147.715 183.804L151.022 198.76L151.357 200.277L149.764 200.679L147.153 201.337L146.817 199.82L149.429 199.162L146.122 184.205L143.51 184.864L143.175 183.347L145.787 182.689L147.38 182.287ZM122.019 188.679L122.354 190.195L125.661 205.152L125.996 206.669L127.59 206.267L130.201 205.609L129.866 204.092L127.254 204.75L123.947 189.794L126.559 189.136L126.224 187.619L123.612 188.277L122.019 188.679Z" fill="#20D497"/>
<path d="M133.652 199.424C133.836 200.279 133.242 201.186 132.357 201.397C131.473 201.609 130.564 201.061 130.38 200.206C130.195 199.35 130.79 198.443 131.674 198.232C132.558 198.021 133.467 198.568 133.652 199.424ZM137.246 196.901C136.361 197.112 135.767 198.019 135.951 198.874C136.136 199.73 137.045 200.277 137.929 200.066C138.813 199.855 139.408 198.948 139.224 198.092C139.039 197.237 138.13 196.689 137.246 196.901ZM142.773 195.58C141.889 195.791 141.294 196.698 141.479 197.554C141.663 198.409 142.572 198.957 143.457 198.745C144.341 198.534 144.936 197.627 144.751 196.772C144.566 195.916 143.702 195.358 142.773 195.58Z" fill="#20D497"/>
</g>
<path d="M72.5061 144.856C70.3228 141.819 67.0177 139.861 63.3333 139.258C59.6488 138.656 55.8921 139.461 52.8557 141.644C49.8193 143.827 47.8605 147.132 47.2583 150.817C46.6561 154.501 47.4606 158.258 49.6439 161.294C51.8271 164.331 55.1322 166.289 58.8167 166.892C60.8124 167.218 62.5985 165.934 62.9247 163.938L63.7778 158.718C63.9284 157.797 64.7964 157.308 65.564 157.434L70.7836 158.287C72.7793 158.613 74.5654 157.329 74.8916 155.333C75.4938 151.649 74.6893 147.892 72.5061 144.856ZM71.0847 156.445L65.8651 155.592C63.8693 155.266 62.0832 156.55 61.757 158.546L60.9039 163.765C60.7533 164.686 59.8854 165.175 59.1178 165.049C52.5165 163.97 48.0216 157.719 49.1005 151.118C50.1795 144.516 56.4309 140.022 63.0322 141.101C69.6335 142.18 74.1284 148.431 73.0494 155.032C72.8989 155.953 72.0058 156.595 71.0847 156.445Z" fill="#20D497"/>
<path d="M57.3033 149.148C56.9683 148.306 56.4295 147.745 55.687 147.466C55.5334 147.441 55.2515 147.237 55.098 147.212C53.7163 146.986 52.4911 147.731 51.8298 148.884C51.1184 150.344 51.7885 152.03 53.2484 152.741C53.5555 152.792 53.6839 152.97 53.9909 153.02C55.3726 153.246 56.5978 152.501 57.1056 151.323C57.5381 150.605 57.51 149.813 57.3033 149.148ZM55.4921 150.586C55.2634 151.022 54.7777 151.1 54.4707 151.05C54.3172 151.025 54.3172 151.025 54.1636 151C53.7282 150.771 53.4964 150.26 53.7252 149.825C53.8005 149.364 54.3112 149.132 54.7718 149.208C54.9253 149.233 54.9253 149.233 55.0788 149.258C55.3859 149.308 55.5143 149.487 55.6176 149.819C55.5925 149.972 55.5423 150.279 55.4921 150.586Z" fill="#20D497"/>
<path d="M57.6814 155.515C57.1676 154.801 56.6038 154.393 55.8362 154.268C55.0686 154.142 54.2508 154.324 53.6899 154.863C52.4396 155.762 52.1385 157.604 53.0124 159.008C53.5261 159.722 54.09 160.13 54.8576 160.255C55.6252 160.38 56.4429 160.199 57.0039 159.66C58.2541 158.761 58.5552 156.919 57.6814 155.515ZM55.848 158.053C55.6694 158.181 55.3373 158.284 55.1838 158.259C54.8767 158.209 54.7483 158.03 54.6199 157.852C54.363 157.495 54.4634 156.881 54.8457 156.47C55.0243 156.342 55.3564 156.238 55.51 156.264C55.817 156.314 55.9454 156.492 56.0739 156.671C56.3056 157.182 56.2052 157.796 55.848 158.053Z" fill="#20D497"/>
<path d="M69.2911 147.167C68.7774 146.453 68.2135 146.046 67.4459 145.92C66.6783 145.795 65.8605 145.976 65.2996 146.515C64.0493 147.414 63.7482 149.256 64.6221 150.66C65.1358 151.374 65.6997 151.782 66.4673 151.907C67.2349 152.033 68.0527 151.851 68.6136 151.312C69.889 150.26 70.165 148.571 69.2911 147.167ZM67.4578 149.705C67.2792 149.833 66.947 149.937 66.7935 149.912C66.4865 149.861 66.358 149.683 66.2296 149.504C65.9728 149.147 66.0731 148.533 66.4554 148.122C66.6341 147.994 66.9662 147.891 67.1197 147.916C67.2732 147.941 67.5552 148.145 67.6836 148.323C68.0689 148.859 67.9685 149.473 67.4578 149.705Z" fill="#20D497"/>
<path d="M63.2256 145.703C63.1193 144.425 62.0417 143.303 60.8136 143.102C60.5066 143.052 60.353 143.027 60.0209 143.13C58.4355 143.186 57.2635 144.571 57.4731 146.181C57.5794 147.46 58.657 148.582 59.8852 148.782C60.1922 148.833 60.3457 148.858 60.6779 148.754C62.2632 148.698 63.4353 147.314 63.2256 145.703ZM60.4933 146.99C60.3398 146.965 60.3398 146.965 60.1863 146.94C59.7257 146.865 59.4689 146.508 59.3906 146.022C59.3124 145.536 59.7198 144.972 60.3339 145.073C60.4874 145.098 60.4874 145.098 60.6409 145.123C61.1015 145.198 61.3583 145.556 61.4366 146.041C61.3864 146.348 60.979 146.912 60.4933 146.99Z" fill="#20D497"/>
<rect y="73" width="600" height="181" fill="url(#paint1_linear)"/>
<path d="M265.842 54.6981C265.111 54.6981 264.527 54.1159 264.527 53.3881C264.527 53.2426 264.576 53.097 264.624 52.9515L260.728 49.0701V52.2237C261.166 52.4663 261.458 52.903 261.458 53.3881C261.458 54.1159 260.874 54.6981 260.143 54.6981C259.412 54.6981 258.828 54.1159 258.828 53.3881C258.828 52.8544 259.12 52.4178 259.559 52.2237V48.876C259.12 48.6819 258.828 48.1968 258.828 47.7116C258.828 47.566 258.877 47.4205 258.925 47.2749L255.028 43.3935V52.2237C255.467 52.4663 255.759 52.903 255.759 53.3881C255.759 54.1159 255.175 54.6981 254.444 54.6981C253.713 54.6981 253.129 54.1159 253.129 53.3881C253.129 53.2911 253.129 53.1455 253.177 53.0485L249.037 49.5552C248.891 49.6523 248.696 49.6523 248.501 49.6523C248.306 49.6523 248.112 49.6038 247.966 49.5552L243.825 53.0485C243.874 53.1455 243.874 53.2426 243.874 53.3881C243.874 54.1159 243.289 54.6981 242.559 54.6981C241.828 54.6981 241.244 54.1159 241.244 53.3881C241.244 52.6604 241.828 52.0782 242.559 52.0782C242.754 52.0782 242.948 52.1267 243.095 52.1752L247.235 48.6819C247.186 48.5849 247.186 48.4393 247.186 48.3423C247.186 47.8086 247.478 47.372 247.917 47.1779V43.1509C247.478 42.9569 247.186 42.4717 247.186 41.9865C247.186 41.2588 247.771 40.6765 248.501 40.6765C248.647 40.6765 248.794 40.7251 248.94 40.7736L253.177 36.6981C253.129 36.5526 253.129 36.407 253.129 36.31C253.129 35.5822 253.713 35 254.444 35C255.175 35 255.759 35.5822 255.759 36.31C255.759 36.8437 255.467 37.2803 255.028 37.4744V40.8221C255.467 41.0647 255.759 41.5013 255.759 41.9865C255.759 42.1321 255.71 42.2776 255.662 42.4232L259.705 46.4501C259.851 46.4016 259.997 46.3531 260.143 46.3531C260.874 46.3531 261.458 46.9353 261.458 47.6631C261.458 47.8086 261.409 47.9542 261.361 48.0997L265.404 52.1267C265.55 52.0782 265.696 52.0296 265.842 52.0296C266.573 52.0296 267.157 52.6119 267.157 53.3396C267.206 54.1159 266.573 54.6981 265.842 54.6981ZM253.811 52.1267V43.1024C253.372 42.9084 253.08 42.4232 253.08 41.938C253.08 41.4043 253.372 40.9677 253.811 40.7736V37.6199L249.67 41.5984C249.719 41.7439 249.719 41.8895 249.719 41.9865C249.719 42.5202 249.427 42.9569 248.988 43.1509V47.1779C249.427 47.372 249.719 47.8571 249.719 48.3423C249.719 48.4393 249.719 48.5849 249.67 48.6819L253.811 52.1267Z" fill="#1D1333"/>
<path d="M272.662 56.5418C272.321 56.2022 271.882 56.0566 271.395 56.0566H241.682C241.292 56.0566 241 56.3962 241 56.7844C241 57.221 241.049 57.6092 241.097 57.9973H249.135C249.378 57.9973 249.573 58.1914 249.573 58.434C249.573 58.531 249.524 58.6766 249.427 58.7251C249.329 58.8221 249.232 58.8706 249.135 58.8706H241.292C241.341 59.2102 241.438 59.5499 241.536 59.8895H249.573C249.817 59.8895 250.011 60.0836 250.011 60.3261C250.011 60.4232 249.963 60.5687 249.865 60.6173C249.768 60.7143 249.67 60.7628 249.573 60.7628H241.828C241.974 61.0539 242.12 61.3935 242.266 61.7332H250.304C250.547 61.7332 250.742 61.9272 250.742 62.1698C250.742 62.2668 250.693 62.4124 250.596 62.4609C250.498 62.558 250.401 62.6065 250.304 62.6065H242.705C242.9 62.9461 243.143 63.2857 243.338 63.6253H251.278C251.521 63.6253 251.716 63.8194 251.716 64.062C251.716 64.159 251.668 64.3046 251.57 64.3531C251.473 64.4501 251.375 64.4987 251.278 64.4987H243.971C244.264 64.8383 244.556 65.1294 244.848 65.469C244.897 65.469 244.897 65.5175 244.946 65.5175H252.739C252.983 65.5175 253.178 65.7116 253.178 65.9542C253.178 66.0512 253.129 66.1968 253.031 66.2453C252.934 66.3423 252.837 66.3908 252.739 66.3908H245.92C246.407 66.779 246.894 67.1186 247.381 67.4097H254.834C255.077 67.4097 255.272 67.6038 255.272 67.8464C255.272 67.9434 255.223 68.0889 255.126 68.1375C255.028 68.2345 254.931 68.283 254.834 68.283H249.086C250.693 68.9623 252.496 69.3504 254.395 69.3504C262.043 69.3504 268.813 65.372 272.662 59.4043C272.71 59.3558 272.759 59.2588 272.808 59.2102C273.051 58.7736 273.197 58.3369 273.197 57.8032C273.149 57.2695 272.954 56.8329 272.662 56.5418ZM270.518 59.0162C269.106 61.0054 267.352 62.7035 265.355 64.062C265.306 64.062 265.306 64.1105 265.258 64.1105C265.16 64.1105 265.063 63.965 265.16 63.8679C266.281 62.3154 267.109 60.4717 267.498 58.531C267.547 58.1914 267.839 57.9973 268.18 57.9973H269.982C270.518 57.9488 270.859 58.5795 270.518 59.0162Z" fill="url(#paint2_linear)"/>
<path d="M358.05 61.7817C357.855 61.1995 357.563 60.7628 357.174 60.3261C356.784 59.938 356.345 59.6469 355.81 59.4043C355.274 59.2102 354.689 59.0647 354.007 59.0647C353.325 59.0647 352.741 59.1617 352.205 59.4043C351.669 59.5984 351.182 59.938 350.792 60.3261C350.403 60.7143 350.111 61.1995 349.916 61.7817C349.721 62.3639 349.623 62.9946 349.623 63.6739C349.623 64.3531 349.721 64.9838 349.916 65.566C350.111 66.1482 350.452 66.6334 350.792 67.0216C351.182 67.4097 351.621 67.7008 352.205 67.9434C352.741 68.1375 353.374 68.283 354.007 68.283C354.689 68.283 355.274 68.186 355.81 67.9434C356.345 67.7493 356.833 67.4097 357.174 67.0216C357.563 66.6334 357.855 66.1482 358.05 65.566C358.245 64.9838 358.343 64.3531 358.343 63.6739C358.391 62.9946 358.294 62.3639 358.05 61.7817ZM355.615 65.8571C355.274 66.3423 354.689 66.5849 353.959 66.5849C353.228 66.5849 352.643 66.3423 352.303 65.8571C351.962 65.372 351.767 64.6442 351.767 63.6739C351.767 62.7035 351.962 61.9757 352.303 61.4906C352.643 61.0054 353.228 60.7143 353.959 60.7143C354.689 60.7143 355.225 60.9569 355.615 61.442C355.956 61.9272 356.151 62.655 356.151 63.6253C356.151 64.6442 356.004 65.372 355.615 65.8571ZM348.26 64.4016C348.113 64.159 347.967 63.9164 347.772 63.7224C347.578 63.5283 347.334 63.3827 347.091 63.2857C346.847 63.1887 346.555 63.0431 346.311 62.9946C346.068 62.8976 345.775 62.8005 345.532 62.752C345.288 62.655 345.045 62.6065 344.85 62.5094C344.655 62.4124 344.46 62.3154 344.363 62.1698C344.217 62.0243 344.168 61.8787 344.168 61.6846C344.168 61.3935 344.314 61.1509 344.509 61.0054C344.752 60.8113 345.093 60.7628 345.483 60.7628C345.775 60.7628 345.97 60.8113 346.214 60.8598C346.409 60.9084 346.603 61.0054 346.75 61.0539C346.896 61.1509 347.042 61.1995 347.139 61.248C347.237 61.2965 347.383 61.345 347.48 61.345C347.578 61.345 347.675 61.345 347.724 61.2965C347.772 61.248 347.87 61.1995 347.919 61.1024L348.406 60.3261C348.065 59.9865 347.626 59.7439 347.139 59.5499C346.652 59.3558 346.068 59.2588 345.483 59.2588C344.947 59.2588 344.46 59.3558 344.022 59.5013C343.583 59.6469 343.242 59.841 342.95 60.0836C342.658 60.3261 342.463 60.6172 342.317 60.9569C342.171 61.2965 342.122 61.6361 342.122 61.9757C342.122 62.3639 342.171 62.7035 342.317 62.9946C342.463 63.2857 342.609 63.5283 342.804 63.6739C342.999 63.8679 343.242 64.0135 343.486 64.159C343.73 64.3046 344.022 64.4016 344.314 64.4986C344.606 64.5957 344.85 64.6927 345.093 64.7412C345.337 64.8383 345.581 64.8868 345.775 64.9838C345.97 65.0809 346.165 65.1779 346.262 65.3234C346.409 65.469 346.457 65.6146 346.457 65.8571C346.457 66.0027 346.409 66.1482 346.36 66.2453C346.311 66.3908 346.214 66.4879 346.116 66.5849C346.019 66.6819 345.873 66.779 345.678 66.8275C345.483 66.876 345.288 66.9245 345.045 66.9245C344.704 66.9245 344.46 66.876 344.265 66.8275C344.071 66.779 343.876 66.6819 343.73 66.5849C343.583 66.4879 343.437 66.4393 343.34 66.3423C343.242 66.2453 343.096 66.2453 342.95 66.2453C342.804 66.2453 342.707 66.2938 342.609 66.3423C342.512 66.3908 342.463 66.4879 342.366 66.5849L341.879 67.4097C342.073 67.5553 342.268 67.7008 342.463 67.8464C342.707 67.9919 342.95 68.0889 343.194 68.186C343.486 68.283 343.73 68.38 344.022 68.4286C344.314 68.4771 344.606 68.5256 344.899 68.5256C345.483 68.5256 345.97 68.4286 346.409 68.283C346.847 68.1375 347.237 67.9434 347.529 67.6523C347.821 67.4097 348.065 67.0701 348.211 66.7305C348.357 66.3908 348.454 65.9542 348.454 65.566C348.454 64.9838 348.406 64.6442 348.26 64.4016ZM340.661 64.4016C340.515 64.159 340.369 63.9164 340.174 63.7224C339.979 63.5283 339.735 63.3827 339.492 63.2857C339.248 63.1887 338.956 63.0431 338.712 62.9946C338.469 62.8976 338.177 62.8005 337.933 62.752C337.689 62.655 337.446 62.6065 337.251 62.5094C337.056 62.4124 336.861 62.3154 336.764 62.1698C336.618 62.0243 336.569 61.8787 336.569 61.6846C336.569 61.3935 336.667 61.1509 336.91 61.0054C337.154 60.8113 337.495 60.7628 337.884 60.7628C338.177 60.7628 338.371 60.8113 338.566 60.8598C338.761 60.9084 338.956 61.0054 339.102 61.0539C339.248 61.1509 339.394 61.1995 339.492 61.248C339.589 61.2965 339.735 61.345 339.833 61.345C339.93 61.345 340.028 61.345 340.076 61.2965C340.125 61.248 340.222 61.1995 340.271 61.1024L340.758 60.3261C340.417 59.9865 340.028 59.7439 339.492 59.5499C339.005 59.3558 338.42 59.2588 337.836 59.2588C337.3 59.2588 336.813 59.3558 336.374 59.5013C335.936 59.6469 335.595 59.841 335.303 60.0836C335.01 60.3261 334.816 60.6172 334.669 60.9569C334.523 61.2965 334.475 61.6361 334.475 61.9757C334.475 62.3639 334.523 62.7035 334.669 62.9946C334.816 63.2857 334.962 63.5283 335.157 63.6739C335.351 63.8679 335.595 64.0135 335.839 64.159C336.082 64.3046 336.374 64.4016 336.618 64.4986C336.91 64.5957 337.154 64.6927 337.446 64.7412C337.689 64.8383 337.933 64.8868 338.128 64.9838C338.323 65.0809 338.518 65.1779 338.615 65.3234C338.761 65.469 338.81 65.6146 338.81 65.8571C338.81 66.0027 338.761 66.1482 338.712 66.2453C338.664 66.3908 338.566 66.4879 338.469 66.5849C338.371 66.6819 338.225 66.779 338.03 66.8275C337.836 66.876 337.641 66.9245 337.397 66.9245C337.056 66.9245 336.813 66.876 336.618 66.8275C336.423 66.779 336.228 66.6819 336.082 66.5849C335.936 66.4879 335.79 66.4393 335.692 66.3423C335.595 66.2453 335.449 66.2453 335.303 66.2453C335.157 66.2453 335.059 66.2938 334.962 66.3423C334.864 66.3908 334.816 66.4879 334.718 66.5849L334.231 67.4097C334.426 67.5553 334.621 67.7008 334.816 67.8464C335.059 67.9919 335.303 68.0889 335.546 68.186C335.79 68.283 336.082 68.38 336.374 68.4286C336.667 68.4771 336.959 68.5256 337.251 68.5256C337.836 68.5256 338.323 68.4286 338.761 68.283C339.199 68.1375 339.589 67.9434 339.881 67.6523C340.174 67.4097 340.417 67.0701 340.563 66.7305C340.71 66.3908 340.807 65.9542 340.807 65.566C340.807 64.9838 340.758 64.6442 340.661 64.4016ZM332.088 65.8086C331.942 65.8086 331.796 65.8571 331.698 65.9542C331.552 66.0512 331.406 66.0997 331.211 66.1968C331.016 66.2938 330.821 66.3908 330.529 66.4879C330.286 66.5849 329.993 66.5849 329.652 66.5849C329.311 66.5849 328.97 66.5364 328.678 66.4394C328.386 66.3423 328.142 66.1968 327.947 65.9542C327.753 65.7601 327.558 65.469 327.46 65.1294C327.314 64.7898 327.266 64.4016 327.217 63.965H332.721C332.916 63.965 333.062 63.9164 333.111 63.8194C333.159 63.7224 333.208 63.4798 333.208 63.1402C333.208 62.5094 333.111 61.9272 332.916 61.442C332.721 60.9569 332.478 60.5202 332.137 60.1806C331.796 59.841 331.406 59.5984 330.919 59.4043C330.432 59.2102 329.945 59.1617 329.36 59.1617C328.678 59.1617 328.094 59.2588 327.558 59.5013C327.022 59.7439 326.584 60.035 326.194 60.4232C325.804 60.8113 325.561 61.2965 325.366 61.8302C325.171 62.3639 325.074 62.9461 325.074 63.5283C325.074 64.3046 325.171 64.9838 325.415 65.566C325.658 66.1482 325.95 66.6334 326.34 67.0701C326.73 67.4582 327.217 67.7493 327.753 67.9919C328.288 68.186 328.873 68.283 329.457 68.283C329.75 68.283 330.091 68.283 330.432 68.2345C330.773 68.186 331.114 68.0889 331.406 67.9919C331.747 67.8949 332.039 67.7493 332.331 67.5553C332.624 67.3612 332.867 67.1186 333.111 66.876L332.478 66.0997C332.429 65.9057 332.283 65.8086 332.088 65.8086ZM327.947 61.1995C328.288 60.8598 328.776 60.6658 329.409 60.6658C329.75 60.6658 329.993 60.7143 330.237 60.8113C330.48 60.9084 330.675 61.0539 330.821 61.248C330.967 61.442 331.114 61.6361 331.162 61.8787C331.26 62.1213 331.26 62.3639 331.26 62.655H327.217C327.363 62.0243 327.558 61.5391 327.947 61.1995ZM323.71 59.1132C323.174 59.1132 322.735 59.2588 322.346 59.5499C321.956 59.841 321.615 60.2776 321.372 60.8113L321.225 59.7924C321.177 59.5984 321.128 59.4528 321.031 59.3558C320.933 59.2588 320.787 59.2588 320.592 59.2588H319.326V68.1375H321.469V62.7035C321.566 62.4609 321.664 62.2668 321.761 62.0728C321.859 61.8787 322.005 61.7332 322.151 61.5876C322.297 61.442 322.443 61.345 322.638 61.2965C322.833 61.248 323.028 61.1995 323.271 61.1995C323.417 61.1995 323.612 61.1995 323.758 61.248C323.905 61.2965 324.051 61.2965 324.148 61.2965C324.246 61.2965 324.294 61.2965 324.392 61.248C324.44 61.1995 324.489 61.1509 324.538 61.0054L324.684 59.4043C324.44 59.2102 324.099 59.1132 323.71 59.1132ZM317.426 61.6846C317.28 61.1024 317.036 60.6658 316.744 60.2776C316.452 59.8895 316.111 59.5984 315.721 59.4043C315.332 59.2102 314.893 59.1132 314.406 59.1132C313.773 59.1132 313.237 59.2588 312.799 59.5013C312.312 59.7439 311.922 60.0836 311.581 60.4717L311.386 59.6469C311.289 59.4043 311.143 59.2588 310.85 59.2588H309.535V71H311.678V67.3612C311.971 67.6523 312.263 67.8464 312.604 67.9919C312.945 68.1375 313.383 68.2345 313.87 68.2345C314.455 68.2345 314.991 68.1375 315.478 67.8949C315.965 67.6523 316.354 67.3612 316.695 66.9245C317.036 66.4879 317.28 66.0027 317.475 65.469C317.67 64.8868 317.718 64.3046 317.718 63.6253C317.67 62.8976 317.572 62.2668 317.426 61.6846ZM315.332 64.9838C315.234 65.372 315.088 65.6631 314.893 65.9057C314.698 66.1482 314.504 66.3423 314.211 66.4394C313.968 66.5849 313.675 66.6334 313.334 66.6334C312.993 66.6334 312.701 66.5849 312.409 66.4394C312.117 66.2938 311.873 66.0997 311.63 65.8086V61.8302C311.922 61.4906 312.214 61.248 312.506 61.0539C312.799 60.8598 313.188 60.7628 313.627 60.7628C313.919 60.7628 314.163 60.8113 314.406 60.9084C314.65 61.0054 314.796 61.1509 314.991 61.3935C315.137 61.6361 315.283 61.9272 315.332 62.2668C315.429 62.6065 315.478 63.0431 315.478 63.5768C315.478 64.159 315.429 64.5957 315.332 64.9838ZM307.684 64.4016C307.538 64.159 307.392 63.9164 307.197 63.7224C307.002 63.5283 306.759 63.3827 306.515 63.2857C306.271 63.1887 305.979 63.0431 305.736 62.9946C305.492 62.8976 305.2 62.8005 304.956 62.752C304.713 62.655 304.469 62.6065 304.274 62.5094C304.08 62.4124 303.885 62.3154 303.787 62.1698C303.641 62.0243 303.592 61.8787 303.592 61.6846C303.592 61.3935 303.69 61.1509 303.933 61.0054C304.177 60.8113 304.518 60.7628 304.908 60.7628C305.2 60.7628 305.395 60.8113 305.59 60.8598C305.784 60.9084 305.979 61.0054 306.125 61.0539C306.271 61.1509 306.418 61.1995 306.515 61.248C306.661 61.2965 306.759 61.345 306.856 61.345C306.953 61.345 307.051 61.345 307.1 61.2965C307.148 61.248 307.246 61.1995 307.294 61.1024L307.782 60.3261C307.441 59.9865 307.051 59.7439 306.515 59.5499C306.028 59.3558 305.443 59.2588 304.859 59.2588C304.323 59.2588 303.836 59.3558 303.398 59.5013C302.959 59.6469 302.618 59.841 302.326 60.0836C302.034 60.3261 301.839 60.6172 301.693 60.9569C301.547 61.2965 301.498 61.6361 301.498 61.9757C301.498 62.3639 301.547 62.7035 301.693 62.9946C301.839 63.2857 301.985 63.5283 302.18 63.6739C302.375 63.8679 302.618 64.0135 302.862 64.159C303.105 64.3046 303.398 64.4016 303.69 64.4986C303.982 64.5957 304.226 64.6927 304.518 64.7412C304.761 64.8383 305.005 64.8868 305.2 64.9838C305.395 65.0809 305.59 65.1779 305.687 65.3234C305.833 65.469 305.882 65.6146 305.882 65.8571C305.882 66.0027 305.833 66.1482 305.784 66.2453C305.736 66.3908 305.638 66.4879 305.541 66.5849C305.443 66.6819 305.297 66.779 305.102 66.8275C304.908 66.876 304.713 66.9245 304.469 66.9245C304.128 66.9245 303.885 66.876 303.69 66.8275C303.495 66.779 303.3 66.6819 303.154 66.5849C303.008 66.4879 302.862 66.4393 302.764 66.3423C302.667 66.2453 302.521 66.2453 302.375 66.2453C302.229 66.2453 302.131 66.2938 302.034 66.3423C301.936 66.3908 301.888 66.4879 301.79 66.5849L301.303 67.4097C301.498 67.5553 301.693 67.7008 301.888 67.8464C302.131 67.9919 302.375 68.0889 302.618 68.186C302.862 68.283 303.154 68.38 303.446 68.4286C303.739 68.4771 304.031 68.5256 304.323 68.5256C304.908 68.5256 305.395 68.4286 305.833 68.283C306.272 68.1375 306.661 67.9434 306.953 67.6523C307.246 67.4097 307.489 67.0701 307.635 66.7305C307.782 66.3908 307.879 65.9542 307.879 65.566C307.879 64.9838 307.83 64.6442 307.684 64.4016ZM299.16 65.8086C299.014 65.8086 298.868 65.8571 298.77 65.9542C298.624 66.0512 298.478 66.0997 298.283 66.1968C298.088 66.2938 297.893 66.3908 297.601 66.4879C297.358 66.5849 297.065 66.5849 296.676 66.5849C296.335 66.5849 295.994 66.5364 295.75 66.4394C295.458 66.3423 295.214 66.1968 295.019 65.9542C294.825 65.7601 294.63 65.469 294.532 65.1294C294.386 64.7898 294.338 64.4016 294.289 63.965H299.793C299.988 63.965 300.134 63.9164 300.183 63.8194C300.231 63.7224 300.28 63.4798 300.28 63.1402C300.28 62.5094 300.183 61.9272 299.988 61.442C299.793 60.9569 299.55 60.5202 299.209 60.1806C298.868 59.841 298.478 59.5984 297.991 59.4043C297.504 59.2102 297.017 59.1617 296.432 59.1617C295.75 59.1617 295.166 59.2588 294.63 59.5013C294.094 59.7439 293.656 60.035 293.266 60.4232C292.876 60.8113 292.633 61.2965 292.438 61.8302C292.243 62.3639 292.146 62.9461 292.146 63.5283C292.146 64.3046 292.243 64.9838 292.487 65.566C292.73 66.1482 293.022 66.6334 293.412 67.0701C293.802 67.4582 294.289 67.7493 294.825 67.9919C295.36 68.186 295.945 68.283 296.529 68.283C296.822 68.283 297.163 68.283 297.504 68.2345C297.845 68.186 298.186 68.0889 298.478 67.9919C298.819 67.8949 299.111 67.7493 299.403 67.5553C299.696 67.3612 299.939 67.1186 300.183 66.876L299.55 66.0997C299.452 65.9057 299.355 65.8086 299.16 65.8086ZM294.971 61.1995C295.312 60.8598 295.799 60.6658 296.432 60.6658C296.773 60.6658 297.017 60.7143 297.26 60.8113C297.504 60.9084 297.699 61.0539 297.845 61.248C297.991 61.442 298.137 61.6361 298.186 61.8787C298.283 62.1213 298.283 62.3639 298.283 62.655H294.24C294.386 62.0243 294.63 61.5391 294.971 61.1995ZM289.028 63.5283C288.931 63.3827 288.785 63.2372 288.687 63.0916C288.541 62.9946 288.444 62.8491 288.249 62.8005C288.687 62.655 289.077 62.4609 289.418 62.2668C289.759 62.0243 290.051 61.7817 290.295 61.4906C290.538 61.1995 290.684 60.8598 290.83 60.4717C290.977 60.0836 291.025 59.6954 291.025 59.2588C291.025 58.7251 290.928 58.2399 290.733 57.8032C290.538 57.3666 290.246 56.9784 289.856 56.6873C289.467 56.3962 288.979 56.1051 288.346 55.9596C287.713 55.7655 287.031 55.717 286.154 55.717H282.306V68.186H284.644V63.2857H285.618C285.862 63.2857 286.008 63.3342 286.154 63.3827C286.3 63.4313 286.398 63.5283 286.495 63.7224L289.126 67.7008C289.32 67.9919 289.613 68.186 290.002 68.186H292.097L289.028 63.5283ZM287.323 61.442C286.982 61.5391 286.593 61.5876 286.154 61.5876H284.693V57.4636H286.203C287.08 57.4636 287.713 57.6092 288.103 57.9973C288.541 58.3369 288.736 58.8221 288.736 59.4528C288.736 59.7925 288.687 60.0836 288.59 60.3261C288.492 60.5687 288.346 60.8113 288.103 61.0054C287.908 61.1509 287.616 61.2965 287.323 61.442Z" fill="#1D1333"/>
<path d="M265.536 185.293C262.821 185.293 260.761 184.561 259.354 183.096C257.958 181.631 257.26 179.526 257.26 176.782C257.26 174.028 258.017 171.895 259.53 170.381C261.044 168.867 263.197 168.11 265.99 168.11C267.914 168.11 269.726 168.53 271.425 169.37L269.74 173.604C269.047 173.301 268.407 173.062 267.821 172.886C267.235 172.7 266.625 172.607 265.99 172.607C265.062 172.607 264.345 172.969 263.837 173.691C263.329 174.414 263.075 175.435 263.075 176.753C263.075 179.409 264.057 180.737 266.02 180.737C267.699 180.737 269.311 180.249 270.854 179.272V183.828C269.379 184.805 267.606 185.293 265.536 185.293ZM279.877 185H274.149V162.207H279.877V185ZM289.604 185H283.876V168.403H289.604V185ZM283.729 164.272C283.729 163.413 283.969 162.773 284.447 162.354C284.926 161.934 285.697 161.724 286.762 161.724C287.826 161.724 288.603 161.938 289.091 162.368C289.579 162.798 289.823 163.433 289.823 164.272C289.823 165.952 288.803 166.792 286.762 166.792C284.74 166.792 283.729 165.952 283.729 164.272ZM301.615 185.293C298.852 185.293 296.703 184.561 295.17 183.096C293.646 181.621 292.885 179.526 292.885 176.812C292.885 174.009 293.593 171.86 295.009 170.366C296.425 168.862 298.446 168.11 301.073 168.11C303.573 168.11 305.502 168.765 306.859 170.073C308.227 171.372 308.91 173.247 308.91 175.698V178.247H298.671C298.71 179.175 299.047 179.902 299.682 180.43C300.326 180.957 301.2 181.221 302.304 181.221C303.31 181.221 304.232 181.128 305.072 180.942C305.922 180.747 306.84 180.42 307.826 179.961V184.077C306.928 184.536 306 184.854 305.043 185.029C304.086 185.205 302.943 185.293 301.615 185.293ZM301.278 172.007C300.604 172.007 300.038 172.222 299.579 172.651C299.13 173.071 298.866 173.735 298.788 174.644H303.71C303.69 173.843 303.461 173.203 303.021 172.725C302.592 172.246 302.011 172.007 301.278 172.007ZM322.621 185V175.947C322.621 174.844 322.46 174.014 322.138 173.457C321.825 172.891 321.317 172.607 320.614 172.607C319.647 172.607 318.949 172.993 318.52 173.765C318.09 174.536 317.875 175.859 317.875 177.734V185H312.147V168.403H316.469L317.187 170.454H317.523C318.012 169.673 318.686 169.087 319.545 168.696C320.414 168.306 321.41 168.11 322.533 168.11C324.369 168.11 325.795 168.643 326.811 169.707C327.836 170.771 328.349 172.271 328.349 174.204V185H322.621ZM340.375 180.767C341.146 180.767 342.069 180.576 343.144 180.195V184.37C342.372 184.702 341.635 184.937 340.932 185.073C340.238 185.22 339.423 185.293 338.485 185.293C336.562 185.293 335.175 184.824 334.325 183.887C333.476 182.939 333.051 181.489 333.051 179.536V172.695H331.044V170.366L333.593 168.564L335.072 165.078H338.822V168.403H342.895V172.695H338.822V179.155C338.822 180.229 339.34 180.767 340.375 180.767Z" fill="url(#paint3_linear)"/>
<path d="M259.047 148H245.683V109.274H259.047V148ZM245.341 99.6357C245.341 97.6305 245.899 96.138 247.016 95.1582C248.132 94.1784 249.932 93.6885 252.416 93.6885C254.9 93.6885 256.711 94.1898 257.851 95.1924C258.99 96.195 259.56 97.6761 259.56 99.6357C259.56 103.555 257.178 105.515 252.416 105.515C247.699 105.515 245.341 103.555 245.341 99.6357ZM315.922 122.946C315.922 131.354 313.86 137.746 309.735 142.121C305.611 146.496 299.573 148.684 291.62 148.684C283.782 148.684 277.766 146.485 273.573 142.087C269.403 137.689 267.318 131.286 267.318 122.878C267.318 114.561 269.392 108.215 273.539 103.84C277.709 99.4421 283.759 97.2432 291.688 97.2432C299.641 97.2432 305.668 99.4193 309.77 103.771C313.871 108.124 315.922 114.515 315.922 122.946ZM281.537 122.946C281.537 132.608 284.898 137.438 291.62 137.438C295.038 137.438 297.567 136.265 299.208 133.918C300.871 131.571 301.703 127.914 301.703 122.946C301.703 117.956 300.86 114.276 299.174 111.906C297.51 109.514 295.015 108.317 291.688 108.317C284.921 108.317 281.537 113.194 281.537 122.946ZM357.621 132.824C357.621 135.923 356.835 138.68 355.263 141.096C353.69 143.488 351.423 145.357 348.461 146.701C345.499 148.023 342.024 148.684 338.036 148.684C334.709 148.684 331.918 148.456 329.662 148C327.406 147.521 325.059 146.701 322.621 145.539V133.508C325.196 134.829 327.873 135.866 330.653 136.618C333.433 137.347 335.985 137.712 338.31 137.712C340.315 137.712 341.785 137.37 342.719 136.687C343.653 135.98 344.12 135.08 344.12 133.986C344.12 133.303 343.926 132.71 343.539 132.209C343.174 131.685 342.571 131.161 341.728 130.637C340.907 130.113 338.697 129.042 335.097 127.424C331.838 125.943 329.389 124.507 327.748 123.117C326.13 121.727 324.923 120.132 324.125 118.332C323.35 116.532 322.963 114.401 322.963 111.94C322.963 107.338 324.638 103.749 327.987 101.174C331.337 98.599 335.94 97.3115 341.796 97.3115C346.968 97.3115 352.243 98.5078 357.621 100.9L353.485 111.325C348.814 109.183 344.781 108.112 341.386 108.112C339.631 108.112 338.355 108.42 337.558 109.035C336.76 109.65 336.361 110.414 336.361 111.325C336.361 112.305 336.863 113.182 337.865 113.957C338.891 114.732 341.648 116.145 346.137 118.195C350.443 120.132 353.428 122.217 355.092 124.45C356.778 126.66 357.621 129.452 357.621 132.824Z" fill="url(#paint4_linear)"/>
</g>
<defs>
<filter id="filter0_d" x="513.874" y="10.6086" width="33.8339" height="33.666" filterUnits="userSpaceOnUse" color-interpolation-filters="sRGB">
<feFlood flood-opacity="0" result="BackgroundImageFix"/>
<feColorMatrix in="SourceAlpha" type="matrix" values="0 0 0 0 0 0 0 0 0 0 0 0 0 0 0 0 0 0 127 0"/>
<feOffset dy="4"/>
<feGaussianBlur stdDeviation="2"/>
<feColorMatrix type="matrix" values="0 0 0 0 0 0 0 0 0 0 0 0 0 0 0 0 0 0 0.05 0"/>
<feBlend mode="normal" in2="BackgroundImageFix" result="effect1_dropShadow"/>
<feBlend mode="normal" in="SourceGraphic" in2="effect1_dropShadow" result="shape"/>
</filter>
<filter id="filter1_d" x="457.667" y="105.124" width="33.1" height="33.0387" filterUnits="userSpaceOnUse" color-interpolation-filters="sRGB">
<feFlood flood-opacity="0" result="BackgroundImageFix"/>
<feColorMatrix in="SourceAlpha" type="matrix" values="0 0 0 0 0 0 0 0 0 0 0 0 0 0 0 0 0 0 127 0"/>
<feOffset dy="4"/>
<feGaussianBlur stdDeviation="2"/>
<feColorMatrix type="matrix" values="0 0 0 0 0 0 0 0 0 0 0 0 0 0 0 0 0 0 0.05 0"/>
<feBlend mode="normal" in2="BackgroundImageFix" result="effect1_dropShadow"/>
<feBlend mode="normal" in="SourceGraphic" in2="effect1_dropShadow" result="shape"/>
</filter>
<filter id="filter2_d" x="99.0567" y="48.3276" width="29.3291" height="24.2799" filterUnits="userSpaceOnUse" color-interpolation-filters="sRGB">
<feFlood flood-opacity="0" result="BackgroundImageFix"/>
<feColorMatrix in="SourceAlpha" type="matrix" values="0 0 0 0 0 0 0 0 0 0 0 0 0 0 0 0 0 0 127 0"/>
<feOffset dy="4"/>
<feGaussianBlur stdDeviation="2"/>
<feColorMatrix type="matrix" values="0 0 0 0 0 0 0 0 0 0 0 0 0 0 0 0 0 0 0.05 0"/>
<feBlend mode="normal" in2="BackgroundImageFix" result="effect1_dropShadow"/>
<feBlend mode="normal" in="SourceGraphic" in2="effect1_dropShadow" result="shape"/>
</filter>
<filter id="filter3_d" x="118.019" y="182.287" width="37.3384" height="32.3815" filterUnits="userSpaceOnUse" color-interpolation-filters="sRGB">
<feFlood flood-opacity="0" result="BackgroundImageFix"/>
<feColorMatrix in="SourceAlpha" type="matrix" values="0 0 0 0 0 0 0 0 0 0 0 0 0 0 0 0 0 0 127 0"/>
<feOffset dy="4"/>
<feGaussianBlur stdDeviation="2"/>
<feColorMatrix type="matrix" values="0 0 0 0 0.356863 0 0 0 0 0.427451 0 0 0 0 0.529412 0 0 0 0.15 0"/>
<feBlend mode="normal" in2="BackgroundImageFix" result="effect1_dropShadow"/>
<feBlend mode="normal" in="SourceGraphic" in2="effect1_dropShadow" result="shape"/>
</filter>
<linearGradient id="paint0_linear" x1="4.68851" y1="165.657" x2="352.62" y2="-230.994" gradientUnits="userSpaceOnUse">
<stop offset="0.1" stop-color="#00CC89"/>
<stop offset="0.7378" stop-color="#0E90AB"/>
<stop offset="0.9986" stop-color="#0071BC"/>
</linearGradient>
<linearGradient id="paint1_linear" x1="300" y1="73" x2="300" y2="254" gradientUnits="userSpaceOnUse">
<stop stop-color="white" stop-opacity="0"/>
<stop offset="1" stop-color="white"/>
</linearGradient>
<linearGradient id="paint2_linear" x1="241" y1="62.7035" x2="273.149" y2="62.7035" gradientUnits="userSpaceOnUse">
<stop stop-color="#20D497"/>
<stop offset="1" stop-color="#007349"/>
</linearGradient>
<linearGradient id="paint3_linear" x1="256.695" y1="172.441" x2="291.175" y2="118.558" gradientUnits="userSpaceOnUse">
<stop offset="0.1" stop-color="#00CC89"/>
<stop offset="0.7378" stop-color="#0E90AB"/>
<stop offset="0.9986" stop-color="#0071BC"/>
</linearGradient>
<linearGradient id="paint4_linear" x1="241.93" y1="136.684" x2="354.728" y2="64.7354" gradientUnits="userSpaceOnUse">
<stop offset="0.1" stop-color="#00CC89"/>
<stop offset="0.7378" stop-color="#0E90AB"/>
<stop offset="0.9986" stop-color="#0071BC"/>
</linearGradient>
</defs>
</svg>
